<?xml version="1.0" ?><svg id="Capa_1" style="enable-background:new 0 0 128 128;" version="1.1" viewBox="0 0 128 128" xml:space="preserve" xmlns="http://www.w3.org/2000/svg" xmlns:xlink="http://www.w3.org/1999/xlink"><style type="text/css">
	.st0{fill:#21A365;}
	.st1{fill:#107C41;}
	.st2{fill:#185B37;}
	.st3{fill:#33C481;}
	.st4{fill:#17864C;}
	.st5{fill:#FFFFFF;}
	.st6{fill:#036C70;}
	.st7{fill:#1A9BA1;}
	.st8{fill:#37C6D0;}
	.st9{fill:#04878B;}
	.st10{fill:#4F59CA;}
	.st11{fill:#7B82EA;}
	.st12{fill:#4C53BB;}
	.st13{fill:#0F78D5;}
	.st14{fill:#29A7EB;}
	.st15{fill:#0358A8;}
	.st16{fill:#0F79D6;}
	.st17{fill:#038387;}
	.st18{fill:#048A8E;}
	.st19{fill:#C8421D;}
	.st20{fill:#FF8F6A;}
	.st21{fill:#ED6B47;}
	.st22{fill:#891323;}
	.st23{fill:#AF2131;}
	.st24{fill:#C94E60;}
	.st25{fill:#E08195;}
	.st26{fill:#B42839;}
	.st27{fill:#0464B8;}
	.st28{fill:#0377D4;}
	.st29{fill:#4FD8FF;}
	.st30{fill:#1681D7;}
	.st31{fill:#0178D4;}
	.st32{fill:#042071;}
	.st33{fill:#168FDE;}
	.st34{fill:#CA64EA;}
	.st35{fill:#7E1FAF;}
	.st36{fill:#AE4BD5;}
	.st37{fill:#9332BF;}
	.st38{fill:#7719AA;}
	.st39{fill:#0078D4;}
	.st40{fill:#1490DF;}
	.st41{fill:#0364B8;}
	.st42{fill:#28A8EA;}
	.st43{fill:#41A5ED;}
	.st44{fill:#2C7BD5;}
	.st45{fill:#195ABE;}
	.st46{fill:#103E91;}
	.st47{fill:#2166C3;}
	.st48{opacity:0.2;}
</style><path class="st13" d="M121.4,89.2L65.7,74.1V53.2l55.8-14.5c1.1-0.3,2.2,0.2,2.7,1.3c1.4,2.9,3.8,10.4,3.8,23.2  c0,13-2.5,21.3-3.9,24.7C123.7,88.9,122.5,89.5,121.4,89.2z"/><path class="st14" d="M107.1,42.5L58.3,55.2l-9.1-15.9l36-35.2c0.7-0.7,1.8-0.8,2.6-0.2c2.3,1.6,7.4,6.2,13,16  c5.6,9.9,7.4,17.3,7.8,20.4C108.7,41.2,108.1,42.2,107.1,42.5z"/><path class="st15" d="M85.9,123.8L50.2,88.2l9.1-15.9l48.6,13.2c0.9,0.3,1.6,1.2,1.5,2.1c-0.2,2.8-1.6,9.6-7.2,19.3  c-5.6,9.9-11.2,15.1-13.6,17.1C87.8,124.6,86.6,124.5,85.9,123.8z"/><path class="st16" d="M59.5,97.2h-53c-3.5,0-6.4-2.9-6.4-6.4V38.6c0-3.5,2.9-6.4,6.4-6.4h53c3.5,0,6.4,2.9,6.4,6.4v52.2  C65.9,94.3,63.1,97.2,59.5,97.2z"/><path class="st5" d="M43.4,45c-1.5,0-2.7,0.7-3.6,2.1l-7.7,12.2l-7.6-12.1c-0.9-1.4-2.1-2.1-3.6-2.1c-2.1,0-3.7,1.4-3.7,3.3  c0,1,0.4,1.8,1,2.7l10.1,15.7V80c0,2.3,1.6,3.8,3.9,3.8S36,82.3,36,80V66.7L46,51c0.6-0.9,1-1.7,1-2.7C47.1,46.4,45.5,45,43.4,45z"/><path class="st48" d="M65.9,37.9c0,0.2,0,0.4,0,0.6v52.2c0,3.5-2.9,6.4-6.4,6.4l0,0l5.3,5.7c3.5,0,6.4-2.9,6.4-6.4V44.2  C71.2,41.1,68.9,38.4,65.9,37.9z"/></svg>