<?xml version="1.0" encoding="utf-8"?>
<!-- Generator: Adobe Illustrator 23.0.4, SVG Export Plug-In . SVG Version: 6.00 Build 0)  -->
<svg version="1.1" id="Layer_1" xmlns="http://www.w3.org/2000/svg" xmlns:xlink="http://www.w3.org/1999/xlink" x="0px" y="0px"
	 viewBox="0 0 200 200" style="enable-background:new 0 0 200 200;" xml:space="preserve">
<style type="text/css">
	.st0{fill:#0066FF;}
</style>
<g>
	<path class="st0" d="M135,66.4H65c-5.5,0-10,4.5-10,10V106h4V76.3c0-3.3,2.7-6,6-6h70c3.3,0,6,2.7,6,6v38c0,3.3-2.7,6.1-6,6.1
		h-32.3v4H135c5.5,0,10-4.5,10-10v-38C145,70.8,140.5,66.4,135,66.4z"/>
	<path class="st0" d="M102.7,98.7c0,1.7,1.4,3.1,3.1,3.1h14.9c1.8,0,3.2-1.4,3.1-3.1V83.8c0-1.7-1.4-3.1-3.1-3.1h-14.9
		c-1.7,0-3.1,1.4-3.1,3.1v5h-5.2c-2.9,0-5.4,1.8-6.3,4.5c-0.9,2.8-8.2,25.4-8.2,25.4v0.2c0,0-0.5,1.8-1.6,1.8h-5.2v-5.1
		c0-1.7-1.4-3.1-3.1-3.1H58.2c-1.7,0-3.1,1.4-3.1,3.1v14.9c0,1.7,1.4,3.1,3.1,3.1h14.9c1.7,0,3.1-1.4,3.1-3.1v-5.1h5.2
		c3.8,0,5.6-3.4,6.1-5.3c0.5-1.5,7.3-22.7,8.2-25.4c0.3-0.7,1-1.2,1.8-1.2h5.2V98.7z M70.9,128.4H60.3v-10.6h10.6V128.4z"/>
</g>
</svg>
