<?xml version="1.0" encoding="utf-8"?>
<!-- Generator: Adobe Illustrator 23.0.4, SVG Export Plug-In . SVG Version: 6.00 Build 0)  -->
<svg version="1.1" id="Layer_1" xmlns="http://www.w3.org/2000/svg" xmlns:xlink="http://www.w3.org/1999/xlink" x="0px" y="0px"
	 viewBox="0 0 200 200" style="enable-background:new 0 0 200 200;" xml:space="preserve">
<style type="text/css">
	.st0{fill:#5C005C;}
</style>
<g transform="translate(-19.757 -26.831)">
	<path class="st0" d="M153.7,93.1H85.8c-6.1,0-11.1,5-11.1,11.1v35.7c0,6.1,5,11.1,11.1,11.1h1.4v-3.7h-1.4c-4.1,0-7.4-3.3-7.4-7.4
		v-35.7c0-4.1,3.3-7.4,7.4-7.4h67.8c4.1,0,7.4,3.3,7.4,7.4v35.7c0,4.1-3.3,7.4-7.4,7.4h-1.4v3.7h1.4c6.1,0,11.1-5,11.1-11.1v-35.7
		C164.7,98.1,159.8,93.1,153.7,93.1"/>
	<path class="st0" d="M127.5,136.1l-17.7-17.7c-1.4-1.4-3.5-1.4-4.9,0c0,0,0,0,0,0l-17.7,17.7c-1.4,1.3-1.4,3.5,0,4.9c0,0,0,0,0,0
		l17.7,17.7c1.4,1.4,3.5,1.4,4.9,0c0,0,0,0,0,0l17.7-17.7C128.8,139.7,128.8,137.5,127.5,136.1C127.5,136.1,127.5,136.1,127.5,136.1
		 M115.5,140.5l-6.3,6.2c-1.1,1.1-2.8,1.1-3.9,0c0,0,0,0,0,0l-6.2-6.2c-1.1-1.1-1.1-2.8,0-3.9c0,0,0,0,0,0l6.2-6.2
		c1.1-1.1,2.8-1.1,3.9,0c0,0,0,0,0,0l6.2,6.2C116.6,137.7,116.6,139.4,115.5,140.5C115.5,140.5,115.5,140.5,115.5,140.5"/>
	<path class="st0" d="M131.1,135.2l-8-8c-0.6-0.6-0.6-1.6,0-2.2c0,0,0,0,0,0l8-8c0.6-0.6,1.6-0.6,2.2,0c0,0,0,0,0,0l8,8
		c0.6,0.6,0.6,1.6,0,2.2c0,0,0,0,0,0l-8,8C132.7,135.8,131.7,135.8,131.1,135.2C131.1,135.2,131.1,135.2,131.1,135.2"/>
	<path class="st0" d="M143.6,147.6l-8-8c-0.6-0.6-0.6-1.6,0-2.2c0,0,0,0,0,0l8-8c0.6-0.6,1.6-0.6,2.2,0c0,0,0,0,0,0l8,8
		c0.6,0.6,0.6,1.6,0,2.2c0,0,0,0,0,0l-8,8C145.2,148.2,144.2,148.2,143.6,147.6C143.6,147.7,143.6,147.6,143.6,147.6"/>
	<path class="st0" d="M131.1,160.1l-8-8c-0.6-0.6-0.6-1.6,0-2.2c0,0,0,0,0,0l8-8c0.6-0.6,1.6-0.6,2.2,0c0,0,0,0,0,0l8,8
		c0.6,0.6,0.6,1.6,0,2.2c0,0,0,0,0,0l-8,8C132.7,160.7,131.7,160.7,131.1,160.1C131.1,160.1,131.1,160.1,131.1,160.1"/>
</g>
</svg>
